<?xml version="1.0" encoding="utf-8"?>
<!-- Generator: Adobe Illustrator 22.1.0, SVG Export Plug-In . SVG Version: 6.00 Build 0)  -->
<svg version="1.1" id="Camada_1" xmlns="http://www.w3.org/2000/svg" xmlns:xlink="http://www.w3.org/1999/xlink" x="0px" y="0px"
	 viewBox="0 0 379.3 270.8" style="enable-background:new 0 0 379.3 270.8;" xml:space="preserve">
<style type="text/css">
	.st0{fill:#546E7A;}
</style>
<title>icons8-boleto-bankario-480</title>
<g>
	<path class="st0" d="M89.6,239.6c0,2.1-0.3,3.9-0.9,5.6c-0.6,1.7-1.4,3.2-2.4,4.4c-1,1.3-2.2,2.4-3.6,3.3c-1.4,0.9-2.9,1.7-4.6,2.3
		c-1.7,0.6-3.5,1-5.4,1.3c-1.9,0.3-4,0.4-6.3,0.4H51c-1,0-1.8-0.3-2.5-0.9c-0.7-0.6-1-1.5-1-2.8v-50.6c0-1.3,0.3-2.3,1-2.8
		c0.7-0.6,1.5-0.9,2.5-0.9h14.6c3.6,0,6.6,0.3,9,0.9c2.5,0.6,4.5,1.5,6.2,2.7c1.7,1.2,3,2.7,3.9,4.6s1.3,4,1.3,6.6
		c0,1.4-0.2,2.7-0.5,4S84.7,220,84,221c-0.7,1-1.5,1.9-2.5,2.7c-1,0.8-2.1,1.4-3.4,1.9c1.6,0.3,3.2,0.8,4.6,1.6
		c1.4,0.7,2.6,1.7,3.6,2.9c1,1.2,1.8,2.6,2.4,4.2C89.3,235.8,89.6,237.6,89.6,239.6z M74.3,215.1c0-1.2-0.2-2.2-0.5-3.1
		c-0.4-0.9-0.9-1.7-1.6-2.3s-1.6-1.1-2.7-1.4c-1.1-0.3-2.6-0.5-4.4-0.5h-6v15.1h6.6c1.7,0,3.1-0.2,4.1-0.6c1-0.4,1.9-1,2.5-1.7
		c0.7-0.7,1.2-1.5,1.5-2.5C74.1,217.2,74.3,216.2,74.3,215.1z M77.3,240c0-1.3-0.2-2.5-0.7-3.6s-1.1-2-2-2.7c-0.9-0.7-2-1.3-3.3-1.7
		c-1.3-0.4-3.1-0.6-5.2-0.6h-7V248h8.5c1.6,0,3-0.2,4.2-0.5s2.1-0.9,2.9-1.5c0.8-0.7,1.5-1.5,1.9-2.5
		C77.1,242.4,77.3,241.3,77.3,240z"/>
	<path class="st0" d="M151.3,227.3c0,4.8-0.6,9.1-1.8,12.9c-1.2,3.8-3,7-5.3,9.7c-2.4,2.6-5.3,4.7-8.8,6.1
		c-3.5,1.4-7.5,2.1-12.1,2.1c-4.5,0-8.5-0.6-11.8-1.8c-3.4-1.2-6.2-3-8.4-5.4c-2.2-2.4-3.9-5.5-5-9.2c-1.1-3.7-1.7-8.2-1.7-13.3
		c0-4.7,0.6-8.9,1.8-12.7c1.2-3.8,3-6.9,5.3-9.6c2.4-2.6,5.3-4.7,8.8-6.1c3.5-1.4,7.5-2.1,12.1-2.1c4.4,0,8.3,0.6,11.6,1.8
		c3.4,1.2,6.2,3,8.4,5.4c2.3,2.4,4,5.5,5.1,9.2C150.7,217.9,151.3,222.2,151.3,227.3z M138.9,227.9c0-3.1-0.2-5.8-0.7-8.3
		c-0.5-2.5-1.3-4.6-2.4-6.4c-1.2-1.8-2.7-3.2-4.6-4.1c-1.9-1-4.3-1.5-7.2-1.5c-2.9,0-5.3,0.5-7.3,1.6c-1.9,1.1-3.5,2.6-4.7,4.4
		c-1.2,1.8-2,4-2.5,6.4c-0.5,2.4-0.7,5-0.7,7.7c0,3.2,0.2,6,0.7,8.5c0.5,2.5,1.3,4.7,2.4,6.5c1.1,1.8,2.7,3.2,4.6,4.1
		c1.9,0.9,4.3,1.4,7.2,1.4c2.9,0,5.3-0.5,7.3-1.6c1.9-1.1,3.5-2.5,4.7-4.4c1.2-1.9,2-4,2.5-6.5S138.9,230.7,138.9,227.9z"/>
	<path class="st0" d="M193.1,252c0,0.9,0,1.7-0.1,2.3c-0.1,0.6-0.2,1.1-0.3,1.5c-0.2,0.4-0.3,0.7-0.6,0.9c-0.2,0.2-0.5,0.3-0.8,0.3
		h-26.6c-1,0-1.8-0.3-2.5-0.9c-0.7-0.6-1-1.5-1-2.8v-52.7c0-0.3,0.1-0.6,0.3-0.8c0.2-0.2,0.5-0.4,1-0.6s1.1-0.3,1.8-0.4
		s1.7-0.1,2.8-0.1c1.2,0,2.1,0,2.9,0.1s1.3,0.2,1.8,0.4s0.8,0.3,1,0.6c0.2,0.2,0.3,0.5,0.3,0.8v46.7h18.3c0.3,0,0.6,0.1,0.8,0.2
		s0.4,0.4,0.6,0.8c0.1,0.4,0.3,0.9,0.3,1.5C193,250.4,193.1,251.1,193.1,252z"/>
	<path class="st0" d="M234.4,252.4c0,0.9,0,1.6-0.1,2.2c-0.1,0.6-0.2,1.1-0.3,1.4c-0.2,0.4-0.3,0.6-0.6,0.8
		c-0.2,0.2-0.5,0.2-0.7,0.2h-29.2c-1,0-1.8-0.3-2.5-0.9s-1-1.5-1-2.8v-50.6c0-1.3,0.3-2.3,1-2.8s1.5-0.9,2.5-0.9h29
		c0.3,0,0.5,0.1,0.7,0.2c0.2,0.1,0.4,0.4,0.5,0.8s0.3,0.9,0.3,1.4c0.1,0.6,0.1,1.3,0.1,2.2c0,0.8,0,1.5-0.1,2.1
		c-0.1,0.6-0.2,1.1-0.3,1.4c-0.1,0.4-0.3,0.6-0.5,0.8c-0.2,0.2-0.4,0.2-0.7,0.2h-20.7v14.2h17.5c0.3,0,0.5,0.1,0.7,0.2
		s0.4,0.4,0.6,0.8s0.3,0.8,0.3,1.4c0.1,0.6,0.1,1.3,0.1,2.1c0,0.9,0,1.6-0.1,2.2c-0.1,0.6-0.2,1-0.3,1.4s-0.3,0.6-0.6,0.7
		c-0.2,0.2-0.5,0.2-0.7,0.2h-17.5v16.4h20.9c0.3,0,0.5,0.1,0.7,0.2c0.2,0.2,0.4,0.4,0.6,0.8c0.1,0.4,0.3,0.8,0.3,1.4
		C234.4,250.8,234.4,251.5,234.4,252.4z"/>
	<path class="st0" d="M283.5,203.8c0,0.9,0,1.6-0.1,2.2c-0.1,0.6-0.2,1.1-0.3,1.5c-0.2,0.4-0.3,0.7-0.6,0.8
		c-0.2,0.2-0.5,0.3-0.7,0.3h-14.5v46.8c0,0.3-0.1,0.6-0.3,0.8c-0.2,0.2-0.5,0.4-1,0.6c-0.4,0.2-1.1,0.3-1.8,0.4s-1.7,0.1-2.8,0.1
		c-1.1,0-2.1,0-2.8-0.1s-1.4-0.2-1.8-0.4c-0.4-0.1-0.8-0.3-1-0.6c-0.2-0.2-0.3-0.5-0.3-0.8v-46.8h-14.5c-0.3,0-0.6-0.1-0.8-0.3
		c-0.2-0.2-0.4-0.5-0.5-0.8c-0.2-0.4-0.3-0.9-0.3-1.5c-0.1-0.6-0.1-1.4-0.1-2.2c0-0.9,0-1.7,0.1-2.3c0.1-0.6,0.2-1.1,0.3-1.5
		c0.1-0.4,0.3-0.6,0.5-0.8c0.2-0.2,0.5-0.2,0.8-0.2h40.9c0.3,0,0.5,0.1,0.7,0.2c0.2,0.2,0.4,0.4,0.6,0.8c0.1,0.4,0.3,0.9,0.3,1.5
		S283.5,202.9,283.5,203.8z"/>
	<path class="st0" d="M340.1,227.3c0,4.8-0.6,9.1-1.8,12.9c-1.2,3.8-3,7-5.3,9.7c-2.4,2.6-5.3,4.7-8.8,6.1
		c-3.5,1.4-7.5,2.1-12.1,2.1c-4.5,0-8.5-0.6-11.8-1.8s-6.2-3-8.4-5.4s-3.9-5.5-5-9.2c-1.1-3.7-1.7-8.2-1.7-13.3
		c0-4.7,0.6-8.9,1.8-12.7c1.2-3.8,3-6.9,5.3-9.6c2.4-2.6,5.3-4.7,8.8-6.1c3.5-1.4,7.5-2.1,12.1-2.1c4.4,0,8.3,0.6,11.6,1.8
		c3.4,1.2,6.2,3,8.4,5.4c2.3,2.4,4,5.5,5.1,9.2C339.5,217.9,340.1,222.2,340.1,227.3z M327.7,227.9c0-3.1-0.2-5.8-0.7-8.3
		c-0.5-2.5-1.3-4.6-2.4-6.4c-1.2-1.8-2.7-3.2-4.6-4.1c-1.9-1-4.3-1.5-7.2-1.5c-2.9,0-5.3,0.5-7.3,1.6c-1.9,1.1-3.5,2.6-4.7,4.4
		s-2,4-2.5,6.4c-0.5,2.4-0.7,5-0.7,7.7c0,3.2,0.2,6,0.7,8.5s1.3,4.7,2.4,6.5c1.1,1.8,2.7,3.2,4.6,4.1c1.9,0.9,4.3,1.4,7.2,1.4
		c2.9,0,5.3-0.5,7.3-1.6c1.9-1.1,3.5-2.5,4.7-4.4c1.2-1.9,2-4,2.5-6.5C327.5,233.3,327.7,230.7,327.7,227.9z"/>
</g>
<path class="st0" d="M23.5,270.8H4.6c-2.5,0-4.6-2-4.6-4.6V4.6C0,2,2.1,0,4.6,0h18.9C26,0,28,2,28,4.6v261.7
	C28,268.7,26,270.8,23.5,270.8z"/>
<path class="st0" d="M374.8,270.8h-18.9c-2.5,0-4.6-2-4.6-4.6V4.6c0-2.5,2-4.6,4.6-4.6h18.9c2.5,0,4.6,2,4.6,4.6v261.7
	C379.3,268.7,377.3,270.8,374.8,270.8z"/>
<path class="st0" d="M329.3,173h-20.7c-2,0-3.6-1.6-3.6-3.6V3.6c0-2,1.6-3.6,3.6-3.6h20.7c2,0,3.6,1.6,3.6,3.6v165.7
	C333,171.3,331.3,173,329.3,173z"/>
<path class="st0" d="M283.5,173h-14.2c-1.7,0-3.1-1.4-3.1-3.1V3.1c0-1.7,1.4-3.1,3.1-3.1h14.2c1.7,0,3.1,1.4,3.1,3.1v166.8
	C286.6,171.6,285.2,173,283.5,173z"/>
<path class="st0" d="M235.1,173h-25.9c-2.2,0-4-1.8-4-4V4c0-2.2,1.8-4,4-4h25.9c2.2,0,4,1.8,4,4v165
	C239.1,171.2,237.3,173,235.1,173z"/>
<path class="st0" d="M178.8,173h-11.3c-1.6,0-2.8-1.3-2.8-2.8V2.8c0-1.6,1.3-2.8,2.8-2.8h11.3c1.6,0,2.8,1.3,2.8,2.8v167.3
	C181.7,171.7,180.4,173,178.8,173z"/>
<path class="st0" d="M149.8,173h-12.2c-1.6,0-2.9-1.3-2.9-2.9V2.9c0-1.6,1.3-2.9,2.9-2.9h12.2c1.6,0,2.9,1.3,2.9,2.9V170
	C152.7,171.7,151.4,173,149.8,173z"/>
<path class="st0" d="M106.7,173H82.2c-2.2,0-3.9-1.8-3.9-3.9V3.9c0-2.2,1.8-3.9,3.9-3.9h24.5c2.2,0,3.9,1.8,3.9,3.9v165.1
	C110.7,171.2,108.9,173,106.7,173z"/>
<path class="st0" d="M56,173H45.4c-1.5,0-2.8-1.2-2.8-2.8V2.8c0-1.5,1.2-2.8,2.8-2.8H56c1.5,0,2.8,1.2,2.8,2.8v167.4
	C58.8,171.7,57.5,173,56,173z"/>
</svg>
