<?xml version="1.0" encoding="utf-8"?>
<!-- Generator: Adobe Illustrator 22.1.0, SVG Export Plug-In . SVG Version: 6.00 Build 0)  -->
<svg version="1.1" id="Camada_1" xmlns="http://www.w3.org/2000/svg" xmlns:xlink="http://www.w3.org/1999/xlink" x="0px" y="0px"
	 viewBox="0 0 379.3 270.8" style="enable-background:new 0 0 379.3 270.8;" xml:space="preserve">
<style type="text/css">
	.st0{fill:#64B4F5;}
	.st1{fill:#37474F;}
	.st2{fill:#E2F1FC;}
	.st3{fill:#FFFFFF;}
</style>
<title>icons8-credit-card-480</title>
<g>
	<path class="st0" d="M379.1,99.3c0,32.3,0.1,64.7,0.1,97c0,12,0,24.1,0,36.1c0,19.4-10.9,33.6-29.6,38c-1.5,0.3-2.9,0.4-4.4,0.4
		c-103.8,0-207.6,0-311.4,0c-13.3,0-25.6-10-30.8-21.4c-2-4.5-3.1-9.4-3-14.3c0.1-44.5,0.1-89,0.1-133.6c0-0.8,0.1-1.5,0.1-2.3
		C126.5,99.3,252.8,99.3,379.1,99.3z M189.6,162.5c55.5,0,111,0,166.5,0.1c4.2,0,5.3-1.2,5.2-5.2c-0.3-11.6-0.3-23.2,0-34.7
		c0.1-4.5-1.3-5.4-5.5-5.3c-83.8,0.1-167.5,0.2-251.3,0.1c-27.2,0-54.4,0.1-81.7-0.1c-3.8,0-4.8,1.1-4.7,4.8
		c0.2,11.9,0.3,23.8,0,35.6c-0.1,4.2,1.3,4.9,5.1,4.9C78.6,162.5,134.1,162.4,189.6,162.5z"/>
	<path class="st1" d="M379.1,99.3c-126.3,0-252.6,0-378.9,0c0-18,0-36.1,0-54.1c126.3,0,252.6,0,378.9,0
		C379.1,63.2,379.1,81.3,379.1,99.3z"/>
	<path class="st0" d="M379.1,45.2c-126.3,0-252.6,0-378.9,0c-0.3-9.9-0.7-19.6,5.4-28.4C13.2,5.9,23.3,0.1,36.5,0
		C60,0,83.5,0,106.9,0C185,0,263,0,341,0.1c16.3,0,28.5,7,35.2,22.2C379.4,29.5,379.6,37.4,379.1,45.2z"/>
	<path class="st2" d="M189.6,162.5c-55.5,0-111,0-166.5,0.1c-3.8,0-5.2-0.7-5.1-4.9c0.3-11.9,0.3-23.8,0-35.6
		c-0.1-3.7,0.9-4.8,4.7-4.8c27.2,0.2,54.4,0.1,81.7,0.1c83.8,0,167.5,0,251.3-0.1c4.2,0,5.7,0.8,5.5,5.3c-0.3,11.6-0.3,23.2,0,34.7
		c0.1,4.1-1,5.3-5.2,5.2C300.6,162.5,245.1,162.4,189.6,162.5z"/>
</g>
<g>
	<path class="st3" d="M86.2,241.9c0,0.7,0,1.3-0.1,1.8s-0.1,0.9-0.2,1.3s-0.2,0.7-0.3,0.9c-0.1,0.3-0.4,0.5-0.7,0.9
		c-0.3,0.3-0.9,0.7-1.8,1.3c-0.9,0.5-2,1-3.3,1.5c-1.3,0.5-2.8,0.9-4.4,1.2c-1.7,0.3-3.5,0.5-5.4,0.5c-3.8,0-7.2-0.6-10.3-1.8
		c-3.1-1.2-5.6-2.9-7.8-5.2s-3.8-5.2-4.9-8.7c-1.1-3.5-1.7-7.5-1.7-12.1c0-4.7,0.6-8.9,1.9-12.5c1.3-3.6,3-6.7,5.3-9.2
		c2.3-2.5,5-4.4,8.1-5.6c3.2-1.3,6.6-1.9,10.4-1.9c1.5,0,3,0.1,4.4,0.4c1.4,0.3,2.7,0.6,4,1c1.2,0.4,2.3,0.9,3.3,1.4
		c1,0.5,1.6,1,2,1.4s0.6,0.7,0.8,1c0.1,0.3,0.3,0.6,0.3,1c0.1,0.4,0.1,0.9,0.2,1.4c0,0.5,0.1,1.2,0.1,2c0,0.9,0,1.6-0.1,2.2
		c-0.1,0.6-0.2,1.1-0.3,1.5c-0.1,0.4-0.3,0.6-0.5,0.8c-0.2,0.2-0.4,0.3-0.7,0.3c-0.4,0-1-0.2-1.6-0.7c-0.7-0.5-1.5-1.1-2.5-1.7
		c-1-0.6-2.3-1.2-3.7-1.7c-1.4-0.5-3.2-0.7-5.2-0.7c-2.2,0-4.2,0.4-5.9,1.3c-1.7,0.9-3.2,2.2-4.4,3.8c-1.2,1.7-2.1,3.7-2.8,6.1
		c-0.6,2.4-0.9,5-0.9,8c0,3.3,0.3,6.1,1,8.4c0.7,2.4,1.6,4.3,2.9,5.9s2.7,2.7,4.5,3.4c1.8,0.8,3.7,1.1,5.9,1.1c2,0,3.7-0.2,5.2-0.7
		c1.5-0.5,2.7-1,3.7-1.6c1-0.6,1.9-1.1,2.6-1.5c0.7-0.5,1.2-0.7,1.6-0.7c0.3,0,0.5,0.1,0.7,0.2c0.2,0.1,0.3,0.3,0.4,0.7
		c0.1,0.3,0.2,0.8,0.3,1.4C86.2,240.1,86.2,240.9,86.2,241.9z"/>
	<path class="st3" d="M139.7,246.1c0.3,1,0.6,1.8,0.6,2.4s0,1-0.3,1.3c-0.3,0.3-0.9,0.5-1.7,0.6c-0.8,0.1-1.9,0.1-3.3,0.1
		c-1.5,0-2.6,0-3.4-0.1c-0.8,0-1.4-0.1-1.9-0.3c-0.4-0.1-0.7-0.3-0.9-0.5c-0.2-0.2-0.3-0.5-0.4-0.9l-3.7-11.1h-20.8l-3.5,10.8
		c-0.1,0.4-0.3,0.7-0.4,1c-0.2,0.3-0.5,0.5-0.9,0.6c-0.4,0.2-1,0.3-1.8,0.3c-0.8,0.1-1.7,0.1-3,0.1c-1.3,0-2.3,0-3.1-0.1
		c-0.7-0.1-1.3-0.3-1.5-0.6c-0.3-0.3-0.4-0.8-0.3-1.4c0.1-0.6,0.3-1.4,0.6-2.4l17.1-49.1c0.2-0.5,0.4-0.9,0.6-1.2
		c0.2-0.3,0.6-0.5,1.1-0.7c0.5-0.2,1.2-0.3,2.1-0.3c0.9,0,2.1-0.1,3.5-0.1c1.7,0,3,0,4,0.1c1,0,1.8,0.1,2.3,0.3
		c0.6,0.2,1,0.4,1.2,0.7s0.4,0.7,0.6,1.3L139.7,246.1z M114.2,205.5L114.2,205.5l-7.9,23.5h15.7L114.2,205.5z"/>
	<path class="st3" d="M188.5,248.9c0,0.3-0.1,0.6-0.2,0.8c-0.1,0.2-0.4,0.4-0.8,0.5c-0.4,0.1-1.1,0.2-1.9,0.3
		c-0.8,0.1-2,0.1-3.4,0.1c-1.2,0-2.2,0-2.9-0.1c-0.7-0.1-1.3-0.2-1.7-0.3c-0.4-0.2-0.7-0.4-0.9-0.6c-0.2-0.2-0.3-0.5-0.4-0.9
		l-5-12.4c-0.6-1.4-1.2-2.6-1.8-3.7c-0.6-1.1-1.2-2-1.9-2.7c-0.7-0.7-1.5-1.3-2.4-1.6c-0.9-0.4-2-0.6-3.2-0.6h-3.5v21.1
		c0,0.3-0.1,0.5-0.3,0.8c-0.2,0.2-0.5,0.4-0.9,0.6s-1,0.3-1.7,0.3c-0.7,0.1-1.6,0.1-2.7,0.1c-1.1,0-2,0-2.7-0.1
		c-0.7-0.1-1.3-0.2-1.7-0.3s-0.7-0.3-0.9-0.6s-0.3-0.5-0.3-0.8v-50.3c0-1.3,0.3-2.2,1-2.7c0.6-0.6,1.4-0.8,2.4-0.8h14.3
		c1.5,0,2.7,0,3.6,0.1c0.9,0.1,1.8,0.1,2.6,0.2c2.2,0.3,4.2,0.9,6,1.6c1.8,0.8,3.3,1.8,4.5,3c1.2,1.2,2.2,2.7,2.8,4.4
		c0.7,1.7,1,3.6,1,5.8c0,1.9-0.2,3.5-0.7,5.1c-0.5,1.5-1.2,2.9-2.1,4.1c-0.9,1.2-2,2.2-3.4,3.1c-1.3,0.9-2.9,1.6-4.6,2.1
		c0.8,0.4,1.6,0.9,2.3,1.5s1.4,1.3,2.1,2.1s1.2,1.7,1.8,2.8c0.6,1,1.1,2.2,1.7,3.5l4.7,10.9c0.4,1.1,0.7,1.9,0.9,2.4
		C188.4,248.2,188.5,248.6,188.5,248.9z M174,211.3c0-1.8-0.4-3.4-1.2-4.6c-0.8-1.3-2.2-2.1-4.1-2.7c-0.6-0.1-1.2-0.3-1.9-0.3
		c-0.7-0.1-1.7-0.1-3-0.1h-5v15.7h5.7c1.6,0,3-0.2,4.2-0.6c1.2-0.4,2.2-0.9,3-1.6c0.8-0.7,1.4-1.5,1.8-2.5
		C173.8,213.6,174,212.5,174,211.3z"/>
	<path class="st3" d="M232.7,199.6c0,0.8,0,1.5-0.1,2.1c-0.1,0.6-0.2,1.1-0.3,1.4c-0.1,0.4-0.3,0.6-0.5,0.8
		c-0.2,0.2-0.4,0.3-0.7,0.3h-13.9v44.6c0,0.3-0.1,0.5-0.3,0.8c-0.2,0.2-0.5,0.4-0.9,0.6s-1,0.3-1.7,0.3c-0.7,0.1-1.6,0.1-2.7,0.1
		c-1.1,0-2,0-2.7-0.1c-0.7-0.1-1.3-0.2-1.7-0.3s-0.7-0.3-0.9-0.6s-0.3-0.5-0.3-0.8v-44.6H192c-0.3,0-0.5-0.1-0.7-0.3
		c-0.2-0.2-0.4-0.4-0.5-0.8c-0.1-0.4-0.3-0.8-0.3-1.4c-0.1-0.6-0.1-1.3-0.1-2.1c0-0.9,0-1.6,0.1-2.2c0.1-0.6,0.2-1.1,0.3-1.4
		s0.3-0.6,0.5-0.8c0.2-0.2,0.4-0.2,0.7-0.2h39c0.3,0,0.5,0.1,0.7,0.2c0.2,0.2,0.4,0.4,0.5,0.8c0.1,0.4,0.2,0.8,0.3,1.4
		C232.6,198,232.7,198.7,232.7,199.6z"/>
	<path class="st3" d="M277.7,246.1c0.3,1,0.6,1.8,0.6,2.4s0,1-0.3,1.3c-0.3,0.3-0.9,0.5-1.7,0.6s-1.9,0.1-3.3,0.1
		c-1.5,0-2.6,0-3.4-0.1s-1.4-0.1-1.9-0.3c-0.4-0.1-0.7-0.3-0.9-0.5s-0.3-0.5-0.4-0.9l-3.7-11.1h-20.8l-3.5,10.8
		c-0.1,0.4-0.3,0.7-0.4,1c-0.2,0.3-0.5,0.5-0.9,0.6c-0.4,0.2-1,0.3-1.8,0.3c-0.8,0.1-1.7,0.1-3,0.1c-1.3,0-2.3,0-3.1-0.1
		c-0.7-0.1-1.3-0.3-1.5-0.6c-0.3-0.3-0.4-0.8-0.3-1.4s0.3-1.4,0.6-2.4l17.1-49.1c0.2-0.5,0.4-0.9,0.6-1.2c0.2-0.3,0.6-0.5,1.1-0.7
		c0.5-0.2,1.2-0.3,2.1-0.3c0.9,0,2.1-0.1,3.5-0.1c1.7,0,3,0,4,0.1c1,0,1.8,0.1,2.3,0.3c0.6,0.2,1,0.4,1.2,0.7s0.4,0.7,0.6,1.3
		L277.7,246.1z M261.7,180.3c0-0.5,0.2-0.8,0.7-0.9c0.5-0.1,1.4-0.2,2.7-0.2s2.1,0.1,2.6,0.3s0.7,0.6,0.7,1.3c0,3.3-0.8,5.8-2.4,7.5
		c-1.6,1.7-3.9,2.6-7,2.6c-1.6,0-3-0.2-4.1-0.7s-2.1-0.9-3-1.5s-1.7-1-2.4-1.5c-0.7-0.4-1.5-0.7-2.4-0.7c-1,0-1.7,0.3-2.1,0.8
		c-0.4,0.5-0.6,1.3-0.6,2.3c0,0.3-0.1,0.5-0.2,0.6c-0.1,0.1-0.3,0.3-0.6,0.3s-0.6,0.1-1,0.1s-0.9,0-1.5,0c-1.3,0-2.1-0.1-2.6-0.3
		s-0.7-0.6-0.7-1.3c0-1.6,0.2-3.1,0.6-4.3s1-2.3,1.9-3.1c0.8-0.8,1.8-1.5,3-1.9c1.2-0.4,2.5-0.7,3.9-0.7c1.6,0,3,0.2,4.1,0.7
		c1.1,0.4,2.1,0.9,3,1.5c0.9,0.5,1.7,1,2.4,1.5c0.7,0.4,1.5,0.7,2.4,0.7c0.8,0,1.5-0.2,2-0.7C261.5,182.3,261.7,181.5,261.7,180.3z
		 M252.3,205.5L252.3,205.5l-7.9,23.5h15.7L252.3,205.5z"/>
	<path class="st3" d="M334,222c0,4.6-0.6,8.7-1.7,12.3c-1.1,3.6-2.8,6.7-5.1,9.2c-2.3,2.5-5,4.4-8.4,5.8c-3.3,1.3-7.2,2-11.5,2
		c-4.3,0-8.1-0.6-11.3-1.7s-5.9-2.8-8-5.2c-2.1-2.3-3.7-5.2-4.8-8.8c-1.1-3.6-1.6-7.8-1.6-12.7c0-4.5,0.6-8.5,1.7-12.1
		c1.1-3.6,2.8-6.6,5.1-9.1c2.3-2.5,5-4.4,8.4-5.8c3.3-1.3,7.2-2,11.6-2c4.2,0,7.9,0.6,11.1,1.7c3.2,1.1,5.9,2.8,8,5.1
		c2.2,2.3,3.8,5.2,4.9,8.7C333.5,213.1,334,217.2,334,222z M322.2,222.6c0-2.9-0.2-5.6-0.7-7.9c-0.5-2.4-1.2-4.4-2.3-6.1
		c-1.1-1.7-2.6-3-4.4-3.9c-1.8-0.9-4.1-1.4-6.8-1.4c-2.8,0-5.1,0.5-6.9,1.6c-1.9,1-3.4,2.4-4.5,4.2c-1.1,1.7-1.9,3.8-2.4,6.1
		c-0.5,2.3-0.7,4.8-0.7,7.4c0,3,0.2,5.7,0.7,8.1c0.5,2.4,1.2,4.5,2.3,6.2c1.1,1.7,2.5,3,4.4,3.9c1.8,0.9,4.1,1.3,6.9,1.3
		c2.8,0,5.1-0.5,6.9-1.5s3.4-2.4,4.5-4.2c1.1-1.8,1.9-3.8,2.4-6.2S322.2,225.3,322.2,222.6z"/>
</g>
</svg>
