<svg xmlns="http://www.w3.org/2000/svg" viewBox="0 0 606.45527 145.34737">
  <title>logo_1</title>
  <g id="Camada_2" data-name="Camada 2">
    <g id="Camada_1-2" data-name="Camada 1">
      <g>
        <path d="M131.24167,68.45448a10.887,10.887,0,0,1-1.40948,9.30739,117.88571,117.88571,0,0,1-32.15061,31.83469,201.7004,201.7004,0,0,1-38.00721,20.29157c-6.19683,2.62454-12.49086,4.73876-18.8335,6.78007-4.17982,1.33657-7.6306-4.66584-9.01578-6.34264,1.8955-.68043,2.43013-.77764,3.7667-1.21506,21.55524-5.78371,39.34379-18.51758,57.13234-31.20286a390.71319,390.71319,0,0,0,35.13966-28.45681A3.23207,3.23207,0,0,1,131.24167,68.45448Z" style="fill: #fff"/>
        <path d="M12.84579,68.21146c-.63183-3.49938-1.14216-6.294.53463-8.91857,10.23084-15.82014,24.277-27.55766,40.09712-37.22957a211.0811,211.0811,0,0,1,39.24659-18.469A81.28766,81.28766,0,0,1,103.99993.11925c4.277-.85054,5.6865,3.03766,7.41189,5.6622-2.60024,1.06926-4.34994,1.62819-6.34264,2.28432-18.66339,6.051-34.82375,16.67069-50.69249,27.77638C41.011,45.22245,14.27956,67.288,12.84579,68.21146Z" style="fill: #fff"/>
        <path d="M69.88091,10.64171A151.0567,151.0567,0,0,0,.23342,58.58816,15.30981,15.30981,0,0,1,2.97947,46.85063,91.15411,91.15411,0,0,1,37.12278,17.519,84.42258,84.42258,0,0,1,65.74969,9.18363,3.49939,3.49939,0,0,1,69.88091,10.64171Z" style="fill: #fff"/>
        <path d="M74.887,125.24659c27.65486-8.60266,50.10926-25.07893,68.94276-46.82858l1.045.77764c-1.09356,2.86755-1.9441,5.83231-3.28067,8.57835-3.35358,6.92586-9.01577,12.00483-14.58077,17.0109a85.05445,85.05445,0,0,1-25.92947,16.40337,68.33519,68.33519,0,0,1-23.86387,5.46779C76.44226,126.729,75.64032,126.80187,74.887,125.24659Z" style="fill: #fff"/>
        <path d="M68.61725,145.29516l-3.47509-3.13487c-.65614-.60754,1.40947-.68044,2.04131-.70474,11.83472-1.7983,21.33653-6.58565,31.00845-12.15065a238.66414,238.66414,0,0,0,29.81768-21.11781c.51033-.41312.99635-.92346,1.7497-.58324C129.9051,118.24782,84.02426,146.72893,68.61725,145.29516Z" style="fill: #fff"/>
        <path d="M122.10439,49.83969c-21.33654,17.35112-84.61709,57.08373-85.419,57.54545-1.31227.89914-2.64884,1.774-3.98541,2.62454h0c-4.42283,2.84325-8.94287,5.565-13.41431,8.35964a4.34992,4.34992,0,0,1-4.00971.43743c-1.65249-2.43013-4.17983-4.20412-5.22478-7.72781l14.26486-9.356Q51.582,84.12883,78.8481,66.46177q18.49327-11.95623,36.938-23.98537c1.16646-.75334,2.79465-1.45808,3.66949.31591S121.13233,47.23945,122.10439,49.83969Z" style="fill: #fff"/>
        <path d="M137.803,57.203A227.533,227.533,0,0,1,80.50057,99.0984,159.12463,159.12463,0,0,1,48.9089,111.249a5.61358,5.61358,0,0,1-5.15187-1.57957,22.5279,22.5279,0,0,0-3.01336-2.13852s44.56856-24.30129,58.80912-34.0218a375.74719,375.74719,0,0,0,39.927-32.07771C143.39231,49.66958,143.1979,51.80809,137.803,57.203Z" style="fill: #fff"/>
        <path d="M104.65606,28.38165,101.424,26.316a14.84819,14.84819,0,0,0-4.20413-2.28432,11.64023,11.64023,0,0,0-5.6865.82625A174.9702,174.9702,0,0,0,60.50061,37.98066a232.97662,232.97662,0,0,0-56.379,43.15909C1.15687,84.25031,1.93451,91.83232,5.74981,94.57836A374.43314,374.43314,0,0,1,46.35727,61.237C58.99394,52.05111,105.06918,28.406,104.65606,28.38165Z" style="fill: #fff"/>
        <path d="M127.13475,16.20671,105.26359,29.57242l-13.1713,8.26243C68.42284,52.99886,44.51037,67.14221,22.785,84.226c-.43743,3.5723,1.11785,6.051,2.96475,9.06438L134.91116,23.95882A50.66836,50.66836,0,0,0,127.13475,16.20671Z" style="fill: #fff"/>
        <g style="isolation: isolate">
          <path d="M269.87174,103.98306H252.31026V62.83224a5.79739,5.79739,0,0,0-5.67781-5.679H234.75v46.82982H217.18849V57.15324H205.36416a5.559,5.559,0,0,0-4.03914,1.66834,5.42234,5.42234,0,0,0-1.698,4.01066v41.15082H182.06672V62.42168a17.56559,17.56559,0,0,1,17.03345-16.9753h53.79627a16.28323,16.28323,0,0,1,11.88247,5.09283,16.28585,16.28585,0,0,1,5.09283,11.88247Z" style="fill: #fff"/>
          <path d="M337.19035,103.98306H295.68711a17.50859,17.50859,0,0,1-17.03463-17.03464V62.538a17.449,17.449,0,0,1,17.15211-17.09159h24.29179a17.39693,17.39693,0,0,1,17.094,17.09159v.9374a17.3455,17.3455,0,0,1-17.094,17.094H296.214v5.96853a5.90448,5.90448,0,0,0,5.736,5.73834h35.24043Zm-17.56148-40.9752a5.78932,5.78932,0,0,0-1.63749-4.127,5.357,5.357,0,0,0-4.03914-1.72767H301.94992a5.55833,5.55833,0,0,0-4.038,1.66834,5.41786,5.41786,0,0,0-1.698,4.01066V68.8601h17.73828a5.35487,5.35487,0,0,0,4.03914-1.7253A5.7893,5.7893,0,0,0,319.62887,63.00786Z" style="fill: #fff"/>
          <path d="M395.72465,103.98306H365.92947a17.50638,17.50638,0,0,1-17.03464-17.03464V33.73952h17.56148V45.44638h29.26834V57.15324H366.45631V86.53786a5.90672,5.90672,0,0,0,5.736,5.73834h23.53238Z" style="fill: #fff"/>
          <path d="M465.96819,103.98306H448.40671V62.83224a5.79744,5.79744,0,0,0-5.67663-5.679H424.993v46.82982H407.43151V33.73952H424.993V45.44638h23.9999a16.28129,16.28129,0,0,1,11.88247,5.09283,16.28129,16.28129,0,0,1,5.09283,11.88247Z" style="fill: #fff"/>
          <path d="M536.2141,86.88909a17.50533,17.50533,0,0,1-17.09633,17.094H494.70969a17.51082,17.51082,0,0,1-17.03464-17.03464V62.538A17.45118,17.45118,0,0,1,494.826,45.44638h24.41046a16.29038,16.29038,0,0,1,11.88485,5.09283,16.29048,16.29048,0,0,1,5.09282,11.88247Zm-17.56147-.35123V62.83224a5.80171,5.80171,0,0,0-5.679-5.679H500.97249a5.561,5.561,0,0,0-4.03914,1.66834,5.42121,5.42121,0,0,0-1.69682,4.01066V86.53786a5.90226,5.90226,0,0,0,5.736,5.73834h12.00113a5.40785,5.40785,0,0,0,3.97981-1.72767A5.5462,5.5462,0,0,0,518.65263,86.53786Z" style="fill: #fff"/>
          <path d="M606.45527,103.98306H565.06951a17.55139,17.55139,0,0,1-17.15092-17.094V62.42168A16.33429,16.33429,0,0,1,553.0399,50.627a16.24868,16.24868,0,0,1,11.91333-5.18063h23.94056V33.73952h17.56148ZM588.89379,92.2762v-35.123H571.21366a5.5595,5.5595,0,0,0-4.03677,1.66834,5.42121,5.42121,0,0,0-1.69682,4.01066V86.53786a6.01735,6.01735,0,0,0,5.73359,5.73834Z" style="fill: #fff"/>
        </g>
      </g>
    </g>
  </g>
</svg>
