<?xml version="1.0" encoding="utf-8"?>
<!-- Generator: Adobe Illustrator 22.1.0, SVG Export Plug-In . SVG Version: 6.00 Build 0)  -->
<svg version="1.1" id="Camada_1" xmlns="http://www.w3.org/2000/svg" xmlns:xlink="http://www.w3.org/1999/xlink" x="0px" y="0px"
	 viewBox="0 0 251.9 59.8" style="enable-background:new 0 0 251.9 59.8;" xml:space="preserve">
<style type="text/css">
	.st0{fill:#009338;}
	.st1{fill:#74746A;}
	.st2{enable-background:new    ;}
</style>
<title>Ativo 2</title>
<path class="st0" d="M54,28.2c0.4,1.3,0.2,2.7-0.6,3.8c-3.5,5.2-8,9.6-13.2,13.1c-4.9,3.3-10.1,6.1-15.6,8.3c-2.5,1.1-5.1,2-7.8,2.8
	c-1.7,0.5-3.1-1.9-3.7-2.6c0.8-0.3,1-0.3,1.6-0.5c8.9-2.4,16.2-7.6,23.5-12.8c5-3.6,9.9-7.5,14.5-11.7C53,28.2,53.5,28,54,28.2z"/>
<path class="st1" d="M5.3,28.1c-0.3-1.4-0.5-2.6,0.2-3.7c4.2-6.5,10-11.3,16.5-15.3C27.1,6,32.5,3.5,38.2,1.5
	c1.5-0.6,3.1-1.1,4.6-1.4c1.8-0.3,2.3,1.3,3,2.3C44.8,2.8,44,3,43.2,3.3c-7.7,2.5-14.3,6.9-20.9,11.4C16.9,18.6,5.9,27.7,5.3,28.1z"
	/>
<path class="st0" d="M28.8,4.4C17.5,8.1,7.6,14.9,0.1,24.1c-0.3-1.7,0.1-3.4,1.1-4.8C4.8,14.1,9.7,10,15.3,7.2C19,5.4,23,4.2,27,3.8
	C27.7,3.6,28.4,3.8,28.8,4.4z"/>
<path class="st1" d="M30.8,51.5C42.2,48,51.4,41.2,59.2,32.3l0.4,0.3c-0.5,1.2-0.8,2.4-1.3,3.5c-1.4,2.8-3.7,4.9-6,7
	c-3.1,2.9-6.7,5.2-10.7,6.8c-3.1,1.3-6.4,2.1-9.8,2.3C31.5,52.2,31.1,52.2,30.8,51.5z"/>
<path class="st0" d="M28.2,59.8l-1.4-1.3c-0.3-0.3,0.6-0.3,0.8-0.3c4.9-0.7,8.8-2.7,12.8-5c4.3-2.6,8.4-5.5,12.3-8.7
	c0.2-0.2,0.4-0.4,0.7-0.2C53.5,48.7,34.6,60.4,28.2,59.8z"/>
<path class="st0" d="M50.2,20.5C41.5,27.6,15.4,44,15.1,44.2c-0.5,0.4-1.1,0.7-1.6,1.1l0,0c-1.8,1.2-3.7,2.3-5.5,3.4
	c-0.5,0.3-1.1,0.4-1.7,0.2c-0.7-1-1.7-1.7-2.2-3.2l5.9-3.8c7.5-4.8,15-9.7,22.4-14.5c5.1-3.3,10.1-6.6,15.2-9.9
	c0.5-0.3,1.2-0.6,1.5,0.1S49.8,19.4,50.2,20.5z"/>
<path class="st1" d="M56.7,23.5c-6.9,6.9-14.9,12.8-23.6,17.2c-4.1,2.1-8.5,3.8-13,5c-0.8,0.2-1.6-0.1-2.1-0.6
	c-0.4-0.3-0.8-0.6-1.2-0.9c0,0,18.3-10,24.2-14c5.8-4,11.3-8.4,16.4-13.2C59,20.4,58.9,21.3,56.7,23.5z"/>
<path class="st0" d="M43.1,11.7l-1.3-0.9c-0.5-0.4-1.1-0.7-1.7-0.9c-0.8-0.1-1.6,0-2.3,0.3c-4.4,1.4-8.7,3.2-12.8,5.4
	C16.3,20.3,8.5,26.3,1.7,33.4c-1.2,1.3-0.9,4.4,0.7,5.5c5.2-5,10.8-9.5,16.7-13.7C24.3,21.4,43.2,11.7,43.1,11.7z"/>
<path class="st1" d="M52.3,6.7l-9,5.5l-5.4,3.4c-9.7,6.2-19.6,12.1-28.5,19.1c-0.2,1.5,0.5,2.5,1.2,3.7L55.5,9.9
	C54.6,8.7,53.5,7.6,52.3,6.7z"/>
<g class="st2">
	<path class="st1" d="M111,42.8h-7.2V25.9c0-0.6-0.2-1.2-0.7-1.6c-0.5-0.5-1-0.7-1.6-0.7h-4.9v19.3h-7.2V23.5h-4.9
		c-0.6,0-1.2,0.2-1.7,0.7c-0.5,0.5-0.7,1-0.7,1.7v16.9h-7.2V25.7c0-1.8,0.7-3.5,2.1-4.9c1.4-1.4,3-2.1,4.9-2.1h22.1
		c1.9,0,3.5,0.7,4.9,2.1c1.4,1.4,2.1,3,2.1,4.9V42.8z"/>
	<path class="st1" d="M138.7,42.8h-17.1c-1.9,0-3.5-0.7-4.9-2.1c-1.4-1.4-2.1-3-2.1-4.9v-10c0-1.9,0.7-3.5,2.1-4.9
		c1.4-1.4,3.1-2.1,5-2.1h10c1.9,0,3.5,0.7,4.9,2.1c1.4,1.4,2.1,3,2.1,4.9v0.4c0,1.9-0.7,3.5-2.1,4.9c-1.4,1.4-3,2.1-5,2.1h-9.8v2.5
		c0,0.6,0.2,1.2,0.7,1.7s1,0.7,1.6,0.7h14.5V42.8z M131.5,25.9c0-0.7-0.2-1.2-0.7-1.7c-0.5-0.5-1-0.7-1.7-0.7h-4.9
		c-0.6,0-1.2,0.2-1.7,0.7c-0.5,0.5-0.7,1-0.7,1.7v2.5h7.3c0.7,0,1.2-0.2,1.7-0.7C131.3,27.2,131.5,26.6,131.5,25.9z"/>
	<path class="st1" d="M162.8,42.8h-12.3c-1.9,0-3.5-0.7-4.9-2.1c-1.4-1.4-2.1-3-2.1-4.9V13.9h7.2v4.8h12v4.8h-12v12.1
		c0,0.6,0.2,1.2,0.7,1.7c0.5,0.5,1,0.7,1.6,0.7h9.7V42.8z"/>
	<path class="st1" d="M191.7,42.8h-7.2V25.9c0-0.6-0.2-1.2-0.7-1.6c-0.5-0.5-1-0.7-1.6-0.7h-7.3v19.3h-7.2V13.9h7.2v4.8h9.9
		c1.9,0,3.5,0.7,4.9,2.1c1.4,1.4,2.1,3,2.1,4.9V42.8z"/>
	<path class="st1" d="M220.6,35.8c0,1.9-0.7,3.5-2.1,4.9s-3,2.1-4.9,2.1h-10c-1.9,0-3.5-0.7-4.9-2.1c-1.4-1.4-2.1-3-2.1-4.9v-10
		c0-1.9,0.7-3.5,2.1-4.9c1.4-1.4,3.1-2.1,4.9-2.1h10c1.9,0,3.5,0.7,4.9,2.1c1.4,1.4,2.1,3,2.1,4.9V35.8z M213.4,35.6v-9.8
		c0-0.6-0.2-1.2-0.7-1.6c-0.5-0.5-1-0.7-1.6-0.7h-4.9c-0.6,0-1.2,0.2-1.7,0.7s-0.7,1-0.7,1.7v9.8c0,0.6,0.2,1.2,0.7,1.7
		c0.5,0.5,1,0.7,1.7,0.7h4.9c0.6,0,1.2-0.2,1.6-0.7S213.4,36.2,213.4,35.6z"/>
	<path class="st1" d="M249.6,42.8h-17c-1.9,0-3.5-0.7-4.9-2.1s-2.1-3-2.1-4.9V25.7c0-1.8,0.7-3.4,2.1-4.9c1.4-1.4,3-2.1,4.9-2.1h9.9
		v-4.8h7.2V42.8z M242.3,38V23.5H235c-0.6,0-1.2,0.2-1.7,0.7s-0.7,1-0.7,1.7v9.8c0,0.6,0.2,1.2,0.7,1.6c0.5,0.5,1,0.7,1.6,0.7H242.3
		z"/>
</g>
</svg>
