<svg xmlns="http://www.w3.org/2000/svg" viewBox="0 0 59.61605 59.81056">
  <title>sygnet</title>
  <g id="Camada_2" data-name="Camada 2">
    <g id="Camada_1-2" data-name="Camada 1">
      <path d="M54.00605,28.16907a4.48,4.48,0,0,1-.58,3.83,48.51,48.51,0,0,1-13.23,13.1,82.9999,82.9999,0,0,1-15.64,8.35c-2.55,1.08-5.14,1.95-7.75,2.79-1.72.55-3.14-1.92-3.71-2.61.78-.28,1-.32,1.55-.5,8.87-2.38,16.19-7.62,23.51-12.84a160.77647,160.77647,0,0,0,14.46-11.71A1.33,1.33,0,0,1,54.00605,28.16907Z" style="fill: #fff"/>
      <path d="M5.28605,28.06907c-.26-1.44-.47-2.59.22-3.67,4.21-6.51,9.99-11.34,16.5-15.32a86.86066,86.86066,0,0,1,16.15-7.6,33.45171,33.45171,0,0,1,4.64-1.43c1.76-.35,2.34,1.25,3.05,2.33-1.07.44-1.79.67-2.61.94-7.68,2.49-14.33,6.86-20.86,11.43C16.87605,18.60907,5.87605,27.68907,5.28605,28.06907Z" style="fill: #fff"/>
      <path d="M28.75605,4.37907a62.16008,62.16008,0,0,0-28.66,19.73,6.3,6.3,0,0,1,1.13-4.83,37.51011,37.51011,0,0,1,14.05-12.07,34.74013,34.74013,0,0,1,11.78-3.43A1.44,1.44,0,0,1,28.75605,4.37907Z" style="fill: #fff"/>
      <path d="M30.81605,51.53907c11.38-3.54,20.62-10.32,28.37-19.27l.43.32c-.45,1.18-.8,2.4-1.35,3.53-1.38,2.85-3.71,4.94-6,7a35,35,0,0,1-10.67,6.75,28.12,28.12,0,0,1-9.82,2.25C31.45605,52.14907,31.12605,52.17907,30.81605,51.53907Z" style="fill: #fff"/>
      <path d="M28.23605,59.78907l-1.43-1.29c-.27-.25.58-.28.84-.29,4.87-.74,8.78-2.71,12.76-5a98.20942,98.20942,0,0,0,12.27-8.69c.21-.17.41-.38.72-.24C53.45605,48.65907,34.57605,60.37907,28.23605,59.78907Z" style="fill: #fff"/>
      <path d="M50.246,20.50907c-8.78,7.14-34.82,23.49-35.15,23.68-.54.37-1.09.73-1.64,1.08h0c-1.82,1.17-3.68,2.29-5.52,3.44a1.79,1.79,0,0,1-1.65.18c-.68-1-1.72-1.73-2.15-3.18l5.87-3.85q11.22-7.24,22.44-14.51,7.61-4.92,15.2-9.87c.48-.31,1.15-.6,1.51.13S49.84605,19.43907,50.246,20.50907Z" style="fill: #fff"/>
      <path d="M56.70605,23.53907a93.62964,93.62964,0,0,1-23.58,17.24,65.47959,65.47959,0,0,1-13,5,2.31,2.31,0,0,1-2.12-.65,9.27081,9.27081,0,0,0-1.24-.88s18.34-10,24.2-14a154.61881,154.61881,0,0,0,16.43-13.2C59.00605,20.43907,58.92605,21.31907,56.70605,23.53907Z" style="fill: #fff"/>
      <path d="M43.066,11.67907l-1.33-.85a6.1102,6.1102,0,0,0-1.73-.94,4.79005,4.79005,0,0,0-2.34.34,72,72,0,0,0-12.77,5.4,95.87019,95.87019,0,0,0-23.2,17.76c-1.22,1.28-.9,4.4.67,5.53a154.08031,154.08031,0,0,1,16.71-13.72C24.27605,21.41907,43.23605,11.68907,43.066,11.67907Z" style="fill: #fff"/>
      <path d="M52.316,6.66907l-9,5.5-5.42,3.4c-9.74,6.24-19.58,12.06-28.52,19.09-.18,1.47.46,2.49,1.22,3.73l44.92-28.53A20.8503,20.8503,0,0,0,52.316,6.66907Z" style="fill: #fff"/>
    </g>
  </g>
</svg>
